<svg version="1.1" id="Layer_1" xmlns="http://www.w3.org/2000/svg" x="0" y="0" viewBox="0 0 1266 400" style="enable-background:new 0 0 1266 400" xml:space="preserve"><style>.st1{fill:#fff}</style><path d="M1199.7 183.4c-9.4.1-18 1.9-25.7 4.8-7.7-3.2-16.1-4.8-25.1-4.8-5.5 0-10.6.6-15.3 1.7-2.9-.7-5.8-1-13.5-1-13.2 0-21.1 2.8-27.4 7.6-10.9-5.6-23.3-8.7-36.7-8.7-13.8 0-26.6 3.3-37.7 9.3-11.3-6-24.6-9.1-38.4-9.1-19.5 0-36.5 5.9-49.9 16 11.5-24.8-.7-45.1-17.3-53.4-18.1-8.9-41.6-14.2-64.1-14.2-25.8 0-46.9 6-62.8 15.8-15.3-9.3-46.2-15.8-67-15.8-33.3 0-58.6 9.9-75.4 25.2-17.4-16.1-41.1-25.4-69.3-25.4-30 0-54.9 10.6-72.9 28.2-18.3-21.9-46.1-29-69.6-28.1 0-30.9-20.5-43.3-55.1-43.3-21.7 0-30 3-39.5 8-15-5.4-31.7-8.2-48.7-8.2-20.3 0-39.4 4-56.5 11.2.5-3.7.7-7.5.7-11.3C232.6 39.2 193.3 0 145 0S57.4 39.2 57.4 87.8c0 12.1 2.5 23.8 7.1 34.5l-13.9 9.1c-5.1 3.4-8 7.3-8.7 13.4-3 23 2.9 42.4 16 61.2 3.8 5.5 6.1 7.3 16.8 7.3-5.1 9.5-14 20.2-30.2 32.6C13.5 269.5 0 308.1 0 344c0 9.5-6.9 56 145 56 143.4 0 145.2-41.4 145-54 17.3-.2 34.3-3.3 49.4-9.1 7 4 18.5 6.4 37.1 6.4 27.5 0 38.2-5.2 45.4-13.6 7.2 8.3 17.9 13.6 45.4 13.6 28.7 0 40.4-6.4 47.5-16.2 18 11.9 40.4 18.3 65 18.3 22.9 0 46.8-4.1 65.1-12.7 19.4 9.5 42.4 12.9 66.2 12.9 25 0 45.5-5.3 61.3-14.1 19.9 10.4 43.8 14.1 68.5 14.1 20.3 0 37.6-3.5 51.9-9.5 7.7 5.7 17.2 9 27.4 9 8.9 0 17.2-2.5 24.3-7 10.5 4.8 22.4 7.5 35.4 7.5 13.8 0 27.3-3.3 38.7-9.3 11.1 5.8 23.8 9.1 37.4 9.1 13.2 0 25.6-3.1 36.4-8.6 6.3 4.9 14.3 7.8 28 7.8 12.6 0 19.8-2.3 25.8-6.2 6 3.9 13.2 6.2 25.9 6.2 12.6 0 19.8-2.3 25.8-6.2 6 3.9 13.2 6.2 25.9 6.2 25.8 0 42.8-17 42.8-38v-54c-.1-42.2-27.4-69.6-66.9-69.2z" style="fill:#2e2c29"/><path class="st1" d="M573.1 165.4c-42.9 0-69.3 30.3-69.3 72.4 0 46.1 31.1 72.6 75.1 72.6 20.9 0 40.9-4 53.5-11 2.1-1.2 3-3.6 1.9-6l-9.7-21.1c-1.1-2.3-4-3.1-6.4-1.9-13.7 6.7-23.4 8.9-33.6 8.9-25 0-38.8-12.9-40.8-30.1H636c2.1 0 3.6-1.5 3.8-3.6.2-2.4.4-5.3.4-7.4 0-45.1-25.6-72.8-67.1-72.8zm-29.6 60.1c1.3-18 12.1-29.2 30.1-29.2s27.7 11.7 29.2 29.2h-59.3zM433.8 165.4c-18 0-27.9 3.4-38.5 13.7v-52.2c0-2.8-2.1-4.9-4.9-4.9h-31.1c-2.8 0-4.9 2.1-4.9 4.9v176.5c0 2.7 2.1 4.8 4.9 4.8h31.1c2.8 0 4.9-2.1 4.9-4.8v-64.8c0-25.8 9.1-37.9 27.9-37.9 15.8 0 22.4 10.4 22.4 33.3v69.4c0 2.7 2.1 4.8 4.9 4.8h31.1c2.8 0 4.9-2.1 4.9-4.8v-75.8c0-42.7-19.3-62.2-52.7-62.2zM330.8 130.9c-13-6-28.1-9.1-44.4-8.9-56.9-.2-99.4 39.4-99.4 94.4 0 55 42.3 94.6 99 94.6 16.5 0 31.8-3.2 44.6-9.1 2.1-1 3.6-3.2 3.6-5.5v-30.7c0-4.4-5.1-6.9-8.6-3.9-10.8 9-23.1 13.5-37.3 13.5-34.3 0-58.6-24.1-58.6-58.6s24.3-58.6 58.6-58.6c14.2 0 26.7 4.4 37.4 13.1 3.4 2.7 8.7.4 8.7-4v-30.5c0-2.6-1.5-4.8-3.6-5.8zM692.1 209.6c0-7.4 8-13.1 26.2-13.1 11.6 0 22.6 2.5 35.1 8.6 2.3 1.1 5 .2 6.1-2.1l9.7-20.9c1-2.1 0-4.9-2.1-5.9-13.3-6.5-31.3-10.6-48.9-10.6-41 0-65.1 18.8-65.1 45.5 0 56.1 85 32.6 85 55.7 0 7.8-7 12.9-25.8 12.9-15.4 0-28.6-2.1-41-8.9-2.3-1.3-5.3-.4-6.4 1.9l-9.7 21.2c-.9 2.1-.2 4.9 1.7 5.9 13.7 7.6 31.9 10.8 53.7 10.8 42.1 0 66.4-18.4 66.4-44.7.1-55.4-84.9-32.2-84.9-56.3zM1201.2 217.5c-20.1.2-27 13.1-27 13.1-5.7-8.9-13.7-13.1-24.3-13.1-13.8 0-19.8 7-21.1 8.9v-4.8c0-1.9-1.3-3.4-3.2-3.4h-9.3c-1.7 0-3.2 1.5-3.2 3.4v84.7c0 1.9 1.3 3.4 3.2 3.4h9.9c1.7 0 3.2-1.5 3.2-3.4v-48.7c0-16.5 5.9-25.4 18.3-25.4 11.7 0 17.2 7.8 17.2 21.8v52.3c0 1.9 1.3 3.4 3.2 3.4h9.9c1.7 0 3.2-1.5 3.2-3.4v-48.7c0-16.5 5.6-25.4 17.5-25.4 12.3 0 18.1 7.8 18.1 21.8v52.3c0 1.9 1.3 3.4 3.2 3.4h10c1.7 0 3.2-1.5 3.2-3.4V252c-.2-22.9-11.8-34.7-32-34.5zM822.3 209.6c0-7.4 8-13.1 26.2-13.1 11.6 0 22.6 2.5 35.1 8.6 2.3 1.1 5 .2 6.1-2.1l9.7-20.9c1-2.1 0-4.9-2.1-5.9-13.3-6.5-31.3-10.6-48.9-10.6-41 0-65.1 18.8-65.1 45.5 0 56.1 85 32.6 85 55.7 0 7.8-7 12.9-25.8 12.9-15.4 0-28.6-2.1-41-8.9-2.3-1.3-5.3-.4-6.4 1.9l-9.7 21.2c-.9 2.1-.2 4.9 1.7 5.9 13.7 7.6 31.9 10.8 53.7 10.8 42.1 0 66.4-18.4 66.4-44.7.1-55.4-84.9-32.2-84.9-56.3zM1056.6 217.1c-25.6 0-44.6 19.5-44.6 46.6 0 27.3 19 46.8 44.6 46.8s44.4-19.4 44.4-46.8-18.8-46.6-44.4-46.6zm0 78.7c-16.5 0-29-12.7-29-32.2s12.5-32 29-32 28.8 12.5 28.8 32-12.3 32.2-28.8 32.2zM1001.4 287.5c-5.8 5.7-13.3 8.3-21.3 8.3-18 0-29-12.5-29-32.2 0-19.7 11-32 29-32 8 0 15.5 2.7 21.1 8.5 1.3 1.3 3.6.4 3.6-1.5v-12.9c0-1.3-.8-2.5-1.9-3.2-6.5-3.6-14.1-5.3-22.6-5.3-28.2 0-45.9 19.3-45.9 46.6s17.7 46.8 45.9 46.8c8.5 0 16.3-1.9 22.8-5.5 1.1-.6 1.9-1.9 1.9-3.2V289c0-1.9-2.3-2.9-3.6-1.5zM920.4 288.2c-5.9 0-11 4.6-11 11 0 6.5 5.3 11 11 11s10.6-4.4 10.6-11-4.7-11-10.6-11z"/><path class="st1" d="M168.5 217.1c0-27.8 8.4-52.9 26.5-73.9l-18.8-12.4c13.4-9.7 22.1-25.5 22.1-43.3 0-29.6-23.9-53.5-53.3-53.5S91.7 57.9 91.7 87.5c0 17.8 8.7 33.6 22.1 43.3l-38.5 25.4c0 8.5 2 15.3 6 22.7h34c-.1 3.3-.1 7.5-.1 12.5-.8 18.8-6.3 48.7-50.1 82.2-21 15.9-31 43.5-31 70.9 0 1.4 2.9 21.5 111 21.5s111-20.2 111-21.5c0-5.8-.5-11.6-1.4-17.3-50.2-12.9-86.2-57.8-86.2-110.1z"/></svg>