<?xml version="1.0" encoding="UTF-8"?><svg id="a" xmlns="http://www.w3.org/2000/svg" viewBox="0 0 60 60"><defs><style>.b{fill:#00664b;}.c{fill:#e30613;}.d{fill:#008b92;}.e{fill:none;}</style></defs><g><rect class="b" x="17.43" y="32.56" width="25.19" height="2.25"/><g><path class="b" d="M33.45,20.29l1.7,4.26,3-1.58-2.6-5.76h-3.78l-5.32,9.92s2.62-.08,4.29-1.34c.42-.25,1.62-3.38,2.71-5.49h0Z"/><path class="d" d="M38.15,22.97l-3,1.58c-2.57,1.32-5.01,2.47-6.33,2.84-3.47,1-7.69,1.6-9.21,.25-1.43-1.27,1.87-6.57,8.1-7.75,1.01-.23,1.6-.17,1.6-.16,0,0-.43-1.81-.76-2.19-.46-.57-.92-.69-1.6-.6-1.35,.08-7.09,1.61-9.35,6.39-1.26,2.72,.42,5.46,1.5,6.26,.51,.37,3.76,3.29,11.3,.34,7.43-2.88,14.08-7.42,14.08-7.42v-3.04s-2.94,1.68-6.34,3.5Z"/><path class="b" d="M36.2,27.32c.28,.65,1.08,2.55,1.28,3.1,.27,.6,.93,.6,.93,.6h3.46l-2.58-5.35c-.95,.53-1.99,1.09-3.1,1.65Z"/></g><path class="c" d="M44.49,18.29s-3.96,2.27-4.89,2.62c-.85,.34-1.17-.11-1.27-.26-.23-.35-.6-1.5-.66-1.68,.02,0,.24,.05,.75-.08,.6-.15,6.07-3.21,6.08-3.21v2.61h0Z"/></g><rect class="e" x="-8.49" y="4.37" width="76.98" height="51.27"/><rect class="e" x="55.63" y="34.28" width="12.87" height="12.87"/><g><path class="b" d="M7.44,41.93h-1.9l-.41,.83h-.75l1.79-3.45h.75l1.79,3.45h-.85l-.41-.83Zm-.27-.54l-.68-1.37-.68,1.37h1.36Z"/><path class="b" d="M9.22,39.31h.74v2.9h1.91v.55h-2.65v-3.45Z"/><path class="b" d="M12.3,42.28l.34-.5c.45,.33,1.06,.48,1.59,.48s1-.16,1-.42-.5-.37-1.07-.49c-.79-.17-1.72-.36-1.72-1.05,0-.64,.8-1.04,1.71-1.04,.63,0,1.28,.18,1.75,.5l-.35,.5c-.39-.3-.91-.44-1.39-.44s-.97,.15-.97,.4c0,.23,.45,.33,1,.43,.8,.16,1.8,.36,1.8,1.11,0,.68-.82,1.07-1.74,1.07-.71,0-1.43-.21-1.94-.55Z"/><path class="b" d="M19.28,41.93h-1.9l-.41,.83h-.75l1.79-3.45h.75l1.79,3.45h-.85l-.41-.83Zm-.27-.54l-.68-1.37-.68,1.37h1.36Z"/><path class="b" d="M22.86,39.26c.53,0,1.08,.16,1.54,.49l-.34,.45c-.37-.26-.68-.4-1.15-.4-.81,0-1.45,.51-1.45,1.25s.64,1.25,1.45,1.25c.49,0,.82-.15,1.21-.42l.34,.45c-.46,.33-1.04,.51-1.6,.51-1.12,0-2.17-.66-2.17-1.79s1.05-1.78,2.17-1.78Z"/><path class="b" d="M25.05,41.77v-2.45h3.12v.55h-2.38v.83h2.19v.54h-2.19v.53c0,.3,.14,.44,.43,.44h2.02v.55h-2.2c-.63,0-1-.37-1-1Z"/><path class="b" d="M34.4,39.31l-1.71,3.45h-.75l-1.71-3.45h.85l1.29,2.72,1.29-2.72h.75Z"/><path class="b" d="M34.55,41.04c0-.98,.91-1.78,2.18-1.78s2.18,.81,2.18,1.78-.91,1.78-2.18,1.78-2.18-.81-2.18-1.78Zm.77,0c0,.69,.58,1.25,1.41,1.25s1.41-.55,1.41-1.25-.58-1.25-1.41-1.25-1.41,.55-1.41,1.25Z"/><path class="b" d="M39.36,42.28l.34-.5c.45,.33,1.06,.48,1.59,.48s1-.16,1-.42-.5-.37-1.07-.49c-.79-.17-1.72-.36-1.72-1.05,0-.64,.8-1.04,1.71-1.04,.63,0,1.28,.18,1.75,.5l-.34,.5c-.39-.3-.91-.44-1.39-.44s-.97,.15-.97,.4c0,.23,.45,.33,1,.43,.8,.16,1.8,.36,1.8,1.11,0,.68-.82,1.07-1.74,1.07-.71,0-1.43-.21-1.94-.55Z"/><path class="b" d="M45.68,39.26c.53,0,1.08,.16,1.54,.49l-.34,.45c-.37-.26-.68-.4-1.15-.4-.81,0-1.45,.5-1.45,1.24s.57,1.26,1.42,1.26c.38,0,.73-.1,.98-.27v-.66h-1.04v-.53h1.78v1.45c-.41,.3-1,.54-1.74,.54-1.3,0-2.16-.77-2.16-1.79,0-1.13,1.05-1.78,2.17-1.78Z"/><path class="b" d="M48.21,41.77v-2.45h3.12v.55h-2.38v.83h2.19v.54h-2.19v.53c0,.3,.14,.44,.43,.44h2.02v.55h-2.2c-.63,0-1-.37-1-1Z"/><path class="b" d="M51.94,42.28l.34-.5c.45,.33,1.06,.48,1.59,.48s1-.16,1-.42-.5-.37-1.07-.49c-.79-.17-1.72-.36-1.72-1.05,0-.64,.8-1.04,1.71-1.04,.63,0,1.28,.18,1.75,.5l-.34,.5c-.39-.3-.91-.44-1.39-.44s-.97,.15-.97,.4c0,.23,.45,.33,1,.43,.8,.16,1.8,.36,1.8,1.11,0,.68-.82,1.07-1.74,1.07-.71,0-1.43-.21-1.94-.55Z"/></g></svg>