<svg width="500" height="79" viewBox="0 0 500 79" fill="none" xmlns="http://www.w3.org/2000/svg">
<path d="M109.971 62.5382C103.921 62.5382 99.1262 60.7117 95.7016 57.0589C92.1629 53.406 90.2223 48.3833 89.8799 41.9908C89.8799 41.1917 89.8799 40.2785 89.8799 39.137C89.8799 37.9955 89.8799 36.9681 89.8799 36.2832C90.1082 32.1737 91.0214 28.5209 92.7337 25.4388C94.446 22.3567 96.729 19.9595 99.5828 18.2472C102.551 16.5349 105.975 15.7358 109.856 15.7358C113.738 15.7358 117.961 16.6491 120.929 18.4755C123.897 20.3019 126.18 22.9274 127.778 26.352C129.376 29.7765 130.176 33.7719 130.176 38.3379V39.8219C130.176 40.5068 129.947 40.9634 129.605 41.3059C129.262 41.6483 128.806 41.8766 128.121 41.8766H98.0988V42.6757C98.213 45.0729 98.7837 47.2418 99.697 49.2965C100.61 51.3513 101.98 53.0635 103.692 54.3192C105.405 55.5749 107.573 56.2598 109.856 56.2598C112.14 56.2598 113.624 55.9173 115.107 55.3466C116.477 54.6617 117.619 53.9768 118.532 53.1777C119.445 52.3786 120.016 51.8079 120.244 51.3513C120.815 50.6664 121.158 50.2097 121.5 50.0956C121.842 49.9814 122.299 49.8673 122.87 49.8673H127.093C127.664 49.8673 128.007 49.9814 128.463 50.3239C128.806 50.6664 129.034 51.123 128.92 51.6937C128.92 52.6069 128.349 53.6343 127.55 54.89C126.637 56.1456 125.495 57.4013 123.897 58.5428C122.299 59.7985 120.358 60.7117 117.961 61.5108C115.564 62.3099 112.939 62.6523 109.971 62.6523V62.5382ZM98.0988 35.8266H121.842V35.5983C121.842 32.9728 121.386 30.6898 120.358 28.635C119.445 26.5803 118.075 24.9821 116.249 23.8406C114.423 22.6991 112.368 22.0142 109.856 22.0142C107.345 22.0142 105.29 22.585 103.464 23.8406C101.752 24.9821 100.382 26.5803 99.4687 28.635C98.5554 30.6898 98.0988 32.9728 98.0988 35.5983V35.8266Z" fill="#36567C"/>
<path d="M140.906 62.5374C140.221 62.5374 139.765 62.3091 139.422 61.9667C139.08 61.6242 138.852 61.1676 138.852 60.4827V3.86332C138.852 3.17841 139.08 2.72181 139.422 2.37935C139.765 2.0369 140.221 1.80859 140.906 1.80859H160.655C166.59 1.80859 171.385 2.72181 175.038 4.54824C178.691 6.37467 181.316 9.00017 183.028 12.5389C184.741 16.0776 185.54 20.3012 185.654 25.438C185.654 28.0635 185.654 30.3466 185.654 32.2872C185.654 34.2278 185.654 36.5108 185.654 39.0221C185.54 44.3873 184.627 48.7251 183.028 52.2638C181.43 55.8025 178.805 58.3138 175.266 60.0261C171.727 61.7384 167.047 62.5374 161.111 62.5374H141.02H140.906ZM147.413 55.1176H160.655C164.65 55.1176 167.846 54.5468 170.243 53.5194C172.641 52.3779 174.353 50.6656 175.38 48.2684C176.408 45.8713 176.978 42.675 177.092 38.6797C177.207 36.9674 177.321 35.3693 177.321 34.1136V30.2324C177.321 28.9768 177.321 27.4928 177.092 25.7805C176.978 20.1871 175.608 15.9634 173.097 13.3379C170.586 10.5983 166.248 9.34262 160.312 9.34262H147.527V55.3459L147.413 55.1176Z" fill="#36567C"/>
<path d="M212.48 62.5382C208.028 62.5382 204.375 61.7391 201.407 60.0268C198.439 58.3145 196.156 56.0315 194.672 53.0635C193.074 50.0956 192.275 46.671 192.046 42.904C192.046 41.8766 192.046 40.621 192.046 39.137C192.046 37.653 192.046 36.3974 192.046 35.4841C192.275 31.603 193.074 28.1784 194.672 25.2105C196.27 22.2425 198.553 19.9595 201.521 18.2472C204.489 16.5349 208.142 15.7358 212.48 15.7358C216.817 15.7358 220.47 16.5349 223.438 18.2472C226.406 19.9595 228.689 22.2425 230.287 25.2105C231.885 28.1784 232.799 31.603 232.913 35.4841C232.913 36.3974 232.913 37.653 232.913 39.137C232.913 40.621 232.913 41.8766 232.913 42.904C232.684 46.671 231.885 50.0956 230.287 53.0635C228.689 56.0315 226.52 58.3145 223.552 60.0268C220.584 61.7391 216.932 62.5382 212.48 62.5382ZM212.48 55.8032C216.018 55.8032 218.872 54.6617 221.041 52.3786C223.21 50.0956 224.351 46.7852 224.466 42.3333C224.466 41.42 224.466 40.3927 224.466 39.0228C224.466 37.653 224.466 36.6257 224.466 35.7124C224.237 31.3747 223.096 27.9501 221.041 25.6671C218.872 23.384 216.018 22.2425 212.48 22.2425C208.941 22.2425 205.973 23.384 203.804 25.6671C201.635 27.9501 200.494 31.2605 200.379 35.7124C200.379 36.6257 200.379 37.653 200.379 39.0228C200.379 40.3927 200.379 41.42 200.379 42.3333C200.494 46.7852 201.635 50.0956 203.804 52.3786C205.973 54.6617 208.827 55.8032 212.48 55.8032Z" fill="#36567C"/>
<path d="M259.167 62.5382C255.058 62.5382 251.519 61.7391 248.551 60.141C245.583 58.5428 243.3 56.2598 241.702 53.2918C240.104 50.3239 239.191 46.7852 239.077 42.5616C239.077 41.6483 239.077 40.5068 239.077 39.137C239.077 37.7672 239.077 36.5115 239.077 35.7124C239.191 31.603 240.104 27.9501 241.702 24.9821C243.3 22.0142 245.583 19.7312 248.551 18.133C251.519 16.5349 255.058 15.7358 259.167 15.7358C263.277 15.7358 265.446 16.1925 267.843 17.1057C270.24 18.0189 272.181 19.2746 273.779 20.6444C275.377 22.1284 276.519 23.6123 277.318 25.3246C278.117 27.0369 278.573 28.635 278.573 30.119C278.573 30.6897 278.459 31.1464 278.002 31.4888C277.546 31.8313 277.089 32.0596 276.519 32.0596H272.409C271.838 32.0596 271.382 31.9454 271.153 31.7171C270.811 31.4888 270.583 31.0322 270.24 30.3473C269.213 27.4935 267.729 25.5529 266.017 24.4114C264.19 23.2699 262.021 22.6991 259.282 22.6991C256.542 22.6991 253.003 23.7265 250.834 25.8954C248.665 28.0643 247.524 31.4888 247.296 36.169C247.296 38.2238 247.296 40.2785 247.296 42.2191C247.524 47.0135 248.665 50.438 250.834 52.6069C253.003 54.7758 255.857 55.8032 259.282 55.8032C262.706 55.8032 264.19 55.2324 266.017 54.0909C267.843 52.9494 269.213 50.8947 270.24 48.155C270.583 47.4701 270.811 47.0135 271.153 46.7852C271.496 46.4427 271.838 46.3286 272.409 46.3286H276.519C277.089 46.3286 277.546 46.5569 278.002 46.8993C278.459 47.2418 278.573 47.6984 278.573 48.3833C278.573 49.639 278.231 50.8947 277.774 52.1503C277.318 53.406 276.519 54.6617 275.605 56.0315C274.578 57.2872 273.322 58.5428 271.838 59.4561C270.354 60.4834 268.528 61.2825 266.473 61.8532C264.418 62.424 262.021 62.7665 259.282 62.7665L259.167 62.5382Z" fill="#36567C"/>
<path d="M292.272 61.6244C291.587 61.6244 291.13 61.3961 290.788 61.0536C290.445 60.7111 290.217 60.2545 290.217 59.5696V2.95025C290.217 2.26534 290.445 1.80872 290.788 1.46627C291.13 1.12381 291.587 0.895508 292.272 0.895508H314.303C318.526 0.895508 322.293 1.58042 325.49 2.95025C328.686 4.32007 331.083 6.37481 332.795 9.11446C334.508 11.8541 335.421 15.2787 335.421 19.3881C335.421 23.4976 334.508 26.9222 332.795 29.6618C331.083 32.4015 328.572 34.4562 325.49 35.826C322.293 37.1958 318.641 37.8808 314.303 37.8808H298.892V59.5696C298.892 60.1404 298.664 60.597 298.322 61.0536C297.979 61.5102 297.408 61.6244 296.838 61.6244H292.272ZM298.892 30.6892H313.846C318.07 30.6892 321.38 29.776 323.435 27.8354C325.604 25.8948 326.631 23.1551 326.631 19.5023C326.631 15.8494 325.604 13.1098 323.549 11.1692C321.494 9.2286 318.184 8.20124 313.846 8.20124H298.892V30.6892Z" fill="#36567C"/>
<path d="M358.023 62.5382C351.973 62.5382 347.178 60.7117 343.754 57.0589C340.215 53.406 338.275 48.3833 337.932 41.9908C337.932 41.1917 337.932 40.2785 337.932 39.137C337.932 37.9955 337.932 36.9681 337.932 36.2832C338.16 32.1737 339.074 28.5209 340.786 25.4388C342.498 22.3567 344.781 19.9595 347.635 18.2472C350.603 16.5349 354.028 15.7358 357.909 15.7358C361.79 15.7358 366.014 16.6491 368.981 18.4755C371.949 20.3019 374.232 22.9274 375.831 26.352C377.429 29.7765 378.228 33.7719 378.228 38.3379V39.8219C378.228 40.5068 378 40.9634 377.657 41.3059C377.315 41.6483 376.858 41.8766 376.173 41.8766H346.151V42.6757C346.265 45.0729 346.836 47.2418 347.749 49.2965C348.662 51.3513 350.032 53.0635 351.745 54.3192C353.457 55.5749 355.626 56.2598 357.909 56.2598C360.192 56.2598 361.676 55.9173 363.16 55.3466C364.53 54.6617 365.671 53.9768 366.584 53.1777C367.498 52.3786 368.068 51.8079 368.297 51.3513C368.867 50.6664 369.21 50.2097 369.552 50.0956C369.895 49.9814 370.351 49.8673 370.922 49.8673H375.146C375.716 49.8673 376.059 49.9814 376.516 50.3239C376.858 50.6664 377.086 51.123 376.972 51.6937C376.972 52.6069 376.401 53.6343 375.602 54.89C374.689 56.1456 373.548 57.4013 371.949 58.5428C370.351 59.7985 368.411 60.7117 366.014 61.5108C363.616 62.3099 360.991 62.6523 358.023 62.6523V62.5382ZM346.151 35.8266H369.895V35.5983C369.895 32.9728 369.438 30.6898 368.411 28.635C367.498 26.5803 366.128 24.9821 364.301 23.8406C362.475 22.6991 360.42 22.0142 357.909 22.0142C355.397 22.0142 353.343 22.585 351.516 23.8406C349.804 24.9821 348.434 26.5803 347.521 28.635C346.608 30.6898 346.151 32.9728 346.151 35.5983V35.8266Z" fill="#36567C"/>
<path d="M386.218 61.625C385.648 61.625 385.191 61.3967 384.734 61.0542C384.392 60.7118 384.164 60.2552 384.164 59.5702V18.4755C384.164 17.9048 384.392 17.4482 384.734 16.9916C385.077 16.5349 385.533 16.4208 386.218 16.4208H390.214C390.784 16.4208 391.241 16.6491 391.698 16.9916C392.154 17.4482 392.268 17.9048 392.268 18.4755V22.2425C393.41 20.302 395.008 18.818 397.063 17.7906C399.117 16.7633 401.515 16.3066 404.483 16.3066H407.907C408.478 16.3066 408.935 16.5349 409.391 16.8774C409.734 17.2199 409.962 17.6765 409.962 18.3614V21.9001C409.962 22.4708 409.734 22.9275 409.391 23.2699C409.049 23.6124 408.592 23.8407 407.907 23.8407H402.656C399.574 23.8407 397.063 24.7539 395.236 26.5803C393.41 28.4068 392.497 30.9181 392.497 34.0002V59.4561C392.497 60.0269 392.268 60.4835 391.926 60.9401C391.469 61.2825 391.013 61.5108 390.442 61.5108H386.218V61.625Z" fill="#36567C"/>
<path d="M432.336 62.5379C429.14 62.5379 426.286 62.0813 424.003 61.2823C421.72 60.4832 419.779 59.4558 418.409 58.3143C416.925 57.1728 415.898 56.0313 415.099 54.8898C414.414 53.7482 413.958 52.835 413.958 52.1501C413.958 51.4652 414.072 51.0086 414.528 50.6661C414.985 50.3237 415.442 50.0954 415.898 50.0954H419.779C420.122 50.0954 420.35 50.0954 420.464 50.2095C420.692 50.2095 420.921 50.552 421.263 50.8944C422.062 51.6935 422.861 52.4926 423.775 53.2916C424.688 54.0907 425.829 54.7756 427.199 55.2322C428.569 55.803 430.281 56.0313 432.222 56.0313C435.19 56.0313 437.587 55.4605 439.528 54.319C441.468 53.1775 442.381 51.5794 442.381 49.2963C442.381 47.0133 442.039 46.6708 441.24 45.8718C440.441 44.9585 439.071 44.2736 437.13 43.4746C435.19 42.7896 432.45 42.1047 428.911 41.3057C425.487 40.5066 422.747 39.4792 420.692 38.3377C418.638 37.1962 417.268 35.7122 416.355 34.1141C415.442 32.516 415.099 30.5754 415.099 28.5207C415.099 26.4659 415.784 24.297 417.04 22.3564C418.295 20.4159 420.122 18.7036 422.633 17.4479C425.144 16.1922 428.227 15.5073 431.879 15.5073C435.532 15.5073 437.473 15.8498 439.642 16.6488C441.811 17.4479 443.523 18.3611 444.893 19.5026C446.263 20.6442 447.29 21.7857 447.975 22.8131C448.66 23.9546 449.002 24.8678 449.116 25.5527C449.116 26.1235 449.002 26.5801 448.546 27.0367C448.089 27.3791 447.632 27.6074 447.176 27.6074H443.523C443.066 27.6074 442.838 27.6074 442.495 27.3791C442.267 27.1508 442.039 27.0367 441.811 26.8084C441.24 26.0093 440.555 25.3244 439.756 24.5253C438.957 23.7263 437.929 23.1555 436.674 22.6989C435.418 22.2423 433.82 22.014 431.765 22.014C428.911 22.014 426.743 22.5847 425.259 23.8404C423.775 25.0961 423.09 26.5801 423.09 28.4065C423.09 30.2329 423.432 30.4612 424.003 31.3745C424.688 32.2877 425.829 32.9726 427.656 33.7716C429.482 34.4566 432.108 35.2556 435.646 36.0547C439.413 36.8537 442.495 37.767 444.664 39.1368C446.833 40.3925 448.431 41.8764 449.345 43.5887C450.258 45.301 450.714 47.2416 450.714 49.4105C450.714 51.5793 450.03 54.0907 448.66 56.1454C447.29 58.2002 445.235 59.7983 442.381 60.9398C439.642 62.0813 436.217 62.7662 432.108 62.7662L432.336 62.5379Z" fill="#36567C"/>
<path d="M477.426 62.5382C472.974 62.5382 469.321 61.7391 466.353 60.0268C463.385 58.3145 461.102 56.0315 459.618 53.0635C458.02 50.0956 457.221 46.671 456.993 42.904C456.993 41.8766 456.993 40.621 456.993 39.137C456.993 37.653 456.993 36.3974 456.993 35.4841C457.221 31.603 458.02 28.1784 459.618 25.2105C461.216 22.2425 463.499 19.9595 466.467 18.2472C469.435 16.5349 473.088 15.7358 477.426 15.7358C481.764 15.7358 485.416 16.5349 488.384 18.2472C491.352 19.9595 493.635 22.2425 495.234 25.2105C496.832 28.1784 497.745 31.603 497.859 35.4841C497.859 36.3974 497.859 37.653 497.859 39.137C497.859 40.621 497.859 41.8766 497.859 42.904C497.631 46.671 496.832 50.0956 495.234 53.0635C493.635 56.0315 491.467 58.3145 488.499 60.0268C485.531 61.7391 481.878 62.5382 477.426 62.5382ZM477.426 55.8032C480.965 55.8032 483.818 54.6617 485.987 52.3786C488.156 50.0956 489.298 46.7852 489.412 42.3333C489.412 41.42 489.412 40.3927 489.412 39.0228C489.412 37.653 489.412 36.6257 489.412 35.7124C489.184 31.3747 488.042 27.9501 485.987 25.6671C483.818 23.384 480.965 22.2425 477.426 22.2425C473.887 22.2425 470.919 23.384 468.75 25.6671C466.581 27.9501 465.44 31.2605 465.326 35.7124C465.326 36.6257 465.326 37.653 465.326 39.0228C465.326 40.3927 465.326 41.42 465.326 42.3333C465.44 46.7852 466.581 50.0956 468.75 52.3786C470.919 54.6617 473.773 55.8032 477.426 55.8032Z" fill="#36567C"/>
<path d="M32.0049 44.5018C26.4114 45.415 20.1331 46.4424 19.9048 51.3509C20.1331 53.2915 21.2746 54.7755 23.2152 55.5746C26.1831 56.8302 30.0643 56.2595 32.6898 54.2047C35.5436 51.9217 36.7993 48.2688 36.1144 43.8169C34.9728 44.1594 33.4889 44.3877 31.8907 44.616L32.0049 44.5018Z" fill="#E94C2C"/>
<path d="M59.4012 29.0915C59.1729 27.2651 58.0314 25.667 56.0908 24.8679C54.8351 24.4113 53.5795 24.183 52.3238 24.2972C50.2691 24.2972 48.3285 25.0962 46.7303 26.3519C43.8765 28.6349 42.6209 32.2878 43.3058 36.7397C44.5615 36.3973 45.9313 36.169 47.5294 35.9407C53.1229 35.0274 59.4012 34.0001 59.6295 29.0915H59.4012Z" fill="#E94C2C"/>
<path d="M39.3108 0.553223C31.5484 0.553223 24.0144 2.83626 17.5077 7.05988C11.1152 11.2835 5.9784 17.3336 3.01044 24.5251C0.0424936 31.7167 -0.75657 39.479 0.727405 47.0131C2.21138 54.5471 5.97839 61.5104 11.4577 66.8755C16.937 72.3548 23.9003 76.0077 31.5484 77.4916C39.1966 78.9756 47.0731 78.1766 54.2647 75.3228C61.4563 72.3548 67.5063 67.4463 71.8441 61.0538C76.1819 54.6613 78.4649 47.1272 78.4649 39.479C78.4649 31.8309 77.4375 29.3195 75.4969 24.6393C73.5564 19.9591 70.5884 15.6213 67.0497 12.0826C63.3968 8.42971 59.0591 5.57591 54.3788 3.63532C49.5845 1.69474 44.5618 0.667373 39.4249 0.667373L39.3108 0.553223ZM45.475 48.3829C47.1873 49.8669 50.8401 50.3235 53.8081 49.2961C55.1779 48.8395 57.5751 47.8121 58.1458 45.4149C58.1458 44.9583 58.4883 44.6159 58.8308 44.3876C59.1732 44.1593 59.5157 43.931 59.9723 43.931C60.3147 43.931 60.7713 43.931 61.1138 43.931C62.4836 43.8168 63.9676 43.7027 64.5384 44.3876C65.6799 46.214 64.7667 48.7254 62.027 51.5792C59.5157 53.9763 55.4062 55.4603 51.1826 55.6886C46.959 55.9169 43.0778 54.7754 40.4523 52.7207C38.8542 56.3735 35.8862 59.2273 32.2334 60.7113C30.4069 61.5104 28.4663 61.967 26.4116 62.0811C24.1286 62.1953 21.8455 61.8528 19.6766 60.9396C17.9644 60.2547 16.3662 59.2273 15.1106 57.7434C13.969 56.2594 13.17 54.5471 12.8275 52.7207C12.4851 51.1225 12.7134 49.4103 13.2841 47.8121C13.8549 46.3282 14.8822 44.9583 16.2521 43.931C19.5625 40.8489 26.7541 39.479 32.4617 38.5658C33.7173 38.3375 34.8588 38.1092 35.8862 37.8809C35.8862 35.712 35.4296 32.9724 33.8315 31.7167C32.1192 30.2327 28.4663 29.7761 25.4984 30.8035C24.1286 31.2601 21.7314 32.2875 21.1606 34.6847C21.1606 35.1413 20.8182 35.4837 20.4757 35.712C20.1332 35.9403 19.7908 36.1686 19.3342 36.1686C18.9917 36.1686 18.5351 36.1686 18.1927 36.1686C16.8228 36.2828 15.3389 36.3969 14.7681 35.712C13.6266 33.8856 14.5398 31.3743 17.2794 28.5205C19.7908 26.1233 23.9003 24.6393 28.1239 24.411C32.3475 24.1827 36.2287 25.3242 38.8542 27.3789C40.4523 23.7261 43.4202 20.8723 47.0731 19.3883C49.0137 18.4751 51.1826 18.0185 53.3515 18.0185C55.5204 18.0185 57.6892 18.3609 59.6298 19.16C61.3421 19.8449 62.9402 20.8723 64.1959 22.3562C65.3374 23.8402 66.1365 25.5525 66.4789 27.3789C66.8214 28.9771 66.5931 30.6893 66.0223 32.2875C65.4516 33.7714 64.4242 35.1413 63.0544 36.1686C59.744 39.2507 52.5524 40.6206 46.8448 41.5338C45.5891 41.7621 44.4476 41.9904 43.4202 42.2187C43.4202 44.3876 43.8769 47.1272 45.475 48.3829Z" fill="#E94C2C"/>
</svg>
