<svg width="777.78" height="525" version="1.1" viewBox="0 0 777.78 525" xmlns="http://www.w3.org/2000/svg">
<path d="m431.9 199.94c-28.599 0-52.751 24.725-52.751 53.996v71.838h16.095v-46.363h72.37v46.363h16.239v-70.418c0-30.552-23.311-55.417-51.953-55.417zm-208.67 0.60004c-17.185 0-29.205 12.085-29.205 29.364 0 8.197 3.0246 15.77 8.6133 21.336 4.611 4.4477 9.2208 7.2187 20.538 12.388 9.9898 4.4011 14.42 6.9368 18.146 10.36 4.5177 4.5407 6.7068 9.8073 6.7068 16.095 0 13.343-10.457 23.379-24.336 23.379-13.599 0-23.873-8.7581-23.873-20.401v-13.391h-15.761v13.391c0 19.677 17.999 36.306 39.307 36.306 22.588 0.0467 40.94-18.284 40.94-40.849 0-17.931-10.107-31.157-30.017-39.284-22.449-9.5476-24.336-12.853-24.336-20.584 0-5.5654 2.281-12.183 13.133-12.183 8.7792 0 12.579 3.4042 13.976 12.533l0.67599 4.4661 15.715-2.8635-0.76715-4.3066c-2.8875-16.371-13.62-25.756-29.455-25.756zm336.18 0.37217c-16.672 0-32.508 6.7334-44.548 18.936-12.017 12.179-18.624 28.174-18.624 45.011v0.46332c0 16.837 6.6074 32.816 18.624 45.018 12.04 12.226 27.853 18.928 44.548 18.928h0.16722c14.533 0 26.151-4.5173 42.869-16.627l3.4483-2.4913-8.8715-13.133-3.6838 2.6053c-14.439 10.363-22.632 13.695-33.762 13.695-20.981 0-38.354-13.132-44.806-31.901-0.21-0.65177-0.46986-1.2543-0.67597-1.9065-0.0233-0.0463-0.0233-0.0982-0.0233-0.12153-1.33-4.5177-2.0275-9.3109-2.0508-14.317 0-5.007 0.72081-9.8307 2.0508-14.325 0.0233-0.0467 0.0233-0.0673 0.0233-0.11394 0.18278-0.65217 0.44264-1.2856 0.67597-1.9141 6.475-18.746 23.825-31.901 44.806-31.901 11.13 0 19.322 3.3323 33.762 13.695l3.6838 2.6508 8.8715-13.133-3.4483-2.4913c-16.718-12.133-28.336-16.627-42.869-16.627zm-278.56 2.1723v122.7h16.095v-36.17h28.597c22.472 0 43.727-20.631 43.727-42.474 0-10.246-5.4901-22.493-13.687-30.503-3.9822-3.7956-8.7615-6.8922-14.234-9.2209-6.2872-2.8646-12.08-4.3294-17.249-4.3294zm-185.26 0.0152v122.67h76.426v-15.601h-60.339v-51.042h60.665v-15.601h-60.665v-24.822h60.339v-15.609zm524.23 0v122.67h76.418v-15.601h-60.331v-51.042h60.635v-15.601h-60.635v-24.822h60.331v-15.609zm-187.93 12.768c20.701 0 35.691 16.598 35.691 39.489v8.4994h-72.347v-9.9197c0-21.354 16.091-38.069 36.656-38.069zm-134.95 2.8407h26.873c16.674 0 29.227 12.155 29.227 28.293 0 15.416-11.949 27.01-27.807 27.01h-28.293zm399.33 121.95-5.9624 9.0614h-34.02v122.7h76.418v-15.624h-60.331v-51.042h60.612v-15.609h-60.612v-24.822h60.612v-15.601h-22.232l6.327-9.0614zm-325.79 5.8941c-28.596 0-52.743 24.732-52.743 54.004v71.838h16.095v-46.363h72.37v46.363h16.232v-70.418c0-30.551-23.311-55.424-51.953-55.424zm124.03 0c-28.595 0-52.743 24.732-52.743 54.004v71.838h16.087v-71.838c0-21.354 16.095-38.076 36.656-38.076 20.701 0 35.699 16.607 35.699 39.497v70.418h16.232v-70.418c0-30.551-23.289-55.424-51.93-55.424zm-234.17 0.60764c-17.186 0-29.205 12.085-29.205 29.364 0 8.197 3.0246 15.763 8.6133 21.328 4.611 4.4489 9.2208 7.2199 20.538 12.388 9.9898 4.4022 14.42 6.9456 18.146 10.368 4.5177 4.5383 6.7068 9.8028 6.7068 16.087 0 13.347-10.457 23.379-24.336 23.379-13.599 0-23.873-8.7506-23.873-20.394v-13.391h-15.715v13.391c0 19.678 17.999 36.299 39.307 36.299 22.542 0.0467 40.894-18.274 40.894-40.841 0-17.928-10.107-31.164-30.017-39.291-22.449-9.5456-24.336-12.845-24.336-20.576 0-5.5658 2.281-12.183 13.133-12.183 8.7792 0 12.579 3.3966 13.976 12.525l0.676 4.4737 15.715-2.8635-0.76715-4.3066c-2.8875-16.371-13.621-25.756-29.455-25.756zm286.82 2.5597v15.601h40.423v107.1h16.414v-107.1h41.38v-15.601zm-176.68 12.76c20.701 0 35.699 16.607 35.699 39.497v8.4994h-72.347v-9.9197c0-21.354 16.086-38.076 36.648-38.076z" fill="#e11a81" stroke-width="3.8889"/>
<path d="m168.81 55.888c-11.061 0-22.594 4.8473-30.838 12.905-2.1424 2.0491-3.6747 3.84-5.1649 6.122-1.1877-1.6532-2.4023-3.1222-4.0788-4.8687l-0.13674-0.13673c-3.9822-3.7959-8.4776-7.0588-13.019-9.4108l-0.21268-0.09116c-5.6587-2.5616-11.853-3.8661-18.396-3.8661-23.426-0.023333-41.076 18.788-41.076 43.704v339.24c0 18.161 14.763 32.926 32.926 32.926h122.28v-15.601l-122.28 0.0233c-9.408 0-16.854-7.9409-16.854-17.348v-341.76c0-14.973 10.124-25.452 24.655-25.452 16.208 0 28.437 11.949 28.437 27.807v81.97h16.232v-82.107c0-9.9898 1.6753-14.696 7.1474-20.029 5.4028-5.1228 12.551-7.9373 20.189-7.9373 15.043 0 26.387 12.015 26.387 27.967v82.107h16.087v-83.528c0.0233-22.728-19.743-42.641-42.284-42.641zm251.38 0.32659c-28.595 0-52.743 24.733-52.743 54.004v71.838h16.087v-71.838c0-21.354 16.095-38.076 36.656-38.076 20.704 0 44.517 16.605 44.517 39.497v70.79l235.29-0.18988c9.4072 0 16.862 8.4116 16.862 17.796v125.8h16.064v-125.8c0-18.163-14.761-32.926-32.926-32.926l-219.05-0.34938v-55.12c0-30.552-32.115-55.424-60.756-55.424zm-131.15 1.2836c-34.674 0-63.946 29.569-63.946 64.569 0 34.65 29.503 63.946 64.41 63.946 16.906 0 32.901-6.7768 45.034-19.072 12.109-12.272 18.776-28.435 18.776-45.505 0-16.883-6.7106-32.855-18.913-45.034-12.226-12.203-28.337-18.905-45.36-18.905zm0.15952 15.897c27.106 0 48.345 21.173 48.345 48.186 0 27.292-21.099 48.664-48.041 48.664-27.199 0-48.505-21.166-48.505-48.178 0.0233-27.292 21.188-48.672 48.201-48.672z" fill="#0c419a" stroke-width="3.8889"/>
</svg>
