<svg width="110" height="38" viewBox="0 0 110 38" fill="none" xmlns="http://www.w3.org/2000/svg">
<path d="M72.3966 18.7382C71.7028 18.3377 70.7444 18.0159 69.55 17.7798C68.4556 17.5295 67.6189 17.2936 67.0609 17.0789C66.5174 16.8716 66.1454 16.6284 65.9523 16.371C65.7664 16.1134 65.6663 15.8201 65.6663 15.4912C65.6663 14.9405 65.888 14.4755 66.3171 14.1107C66.7535 13.7461 67.4257 13.5601 68.3054 13.5601C68.9278 13.5601 69.4355 13.6387 69.8145 13.7889C70.1937 13.9391 70.5012 14.1322 70.7373 14.3539C70.9803 14.5828 71.1878 14.8189 71.3737 15.0621C71.4452 15.1407 71.5311 15.205 71.6169 15.2623C71.7099 15.3266 71.8315 15.3553 71.9746 15.3553H73.1189C73.3048 15.3553 73.4622 15.2909 73.6052 15.1549C73.7482 15.0191 73.8127 14.8475 73.7912 14.6472C73.7697 14.3969 73.6481 14.0965 73.4264 13.7461C73.2047 13.3955 72.8686 13.038 72.4323 12.6803C71.9959 12.3227 71.431 12.0223 70.7515 11.7863C70.0721 11.5503 69.2496 11.4287 68.3054 11.4287C67.1396 11.4287 66.1527 11.6361 65.373 12.0367C64.5935 12.4372 63.9926 12.9664 63.5921 13.5957C63.1845 14.2323 62.9843 14.8975 62.9843 15.5769C62.9843 16.2421 63.1272 16.843 63.399 17.3651C63.678 17.8943 64.1428 18.3519 64.7865 18.7239C65.4231 19.0959 66.3029 19.4178 67.3899 19.6681C68.4699 19.904 69.3282 20.1329 69.9505 20.3475C70.5583 20.5621 70.9876 20.798 71.2235 21.0627C71.4523 21.3201 71.5739 21.6635 71.5739 22.0998C71.5739 22.765 71.295 23.2512 70.7158 23.5946C70.1292 23.9379 69.3783 24.1167 68.4699 24.1167C67.8477 24.1167 67.3256 24.038 66.9107 23.8807C66.4959 23.7233 66.1383 23.5159 65.8595 23.2727C65.5733 23.0224 65.3086 22.765 65.0798 22.5218C64.9654 22.3858 64.8653 22.3001 64.7938 22.2715C64.7222 22.2429 64.6221 22.2214 64.5076 22.2214H63.3132C63.1487 22.2214 62.9914 22.2786 62.8341 22.4002C62.6695 22.5289 62.5909 22.7006 62.6124 22.9294C62.6337 23.1655 62.7553 23.4588 62.9914 23.8307C63.2202 24.1953 63.5706 24.5745 64.0285 24.9391C64.4861 25.3039 65.0869 25.6187 65.8165 25.8761C66.5459 26.1337 67.5903 26.2624 68.6059 26.2624C69.8789 26.2624 70.8086 26.0763 71.674 25.6973C72.5468 25.3254 73.2118 24.8033 73.6625 24.1596C74.113 23.5159 74.3419 22.7936 74.3419 22.0212C74.3419 21.3201 74.1917 20.6979 73.8984 20.1616C73.598 19.618 73.0974 19.1387 72.3966 18.7382Z" fill="#E94C2C"/>
<path d="M78.9694 11.3789H77.6677C77.4674 11.3789 77.2958 11.4433 77.167 11.5792C77.0311 11.7079 76.9668 11.8796 76.9668 12.0798V25.533C76.9668 25.7333 77.0311 25.9049 77.167 26.0338C77.2958 26.1696 77.6247 26.2341 77.8249 26.2341H78.8193C79.0195 26.2341 79.3413 26.1696 79.4629 26.0338C79.5844 25.9049 79.6488 25.7333 79.6488 25.533V12.0798C79.6488 11.8796 79.5844 11.7079 79.4629 11.5792C79.3413 11.4433 79.1768 11.3789 78.9694 11.3789Z" fill="#E94C2C"/>
<path d="M78.8835 6.18555H77.6677C77.4674 6.18555 77.2957 6.24992 77.167 6.38581C77.0383 6.5217 76.9668 6.6862 76.9668 6.88646V8.35266C76.9668 8.55293 77.0311 8.72457 77.167 8.85331C77.2957 8.98205 77.4674 9.05358 77.6677 9.05358H78.8835C79.0838 9.05358 79.2554 8.98921 79.3841 8.85331C79.5201 8.71742 79.5844 8.55293 79.5844 8.35266V6.88646C79.5844 6.6862 79.5201 6.51455 79.3841 6.38581C79.2554 6.25707 79.0838 6.18555 78.8835 6.18555Z" fill="#E94C2C"/>
<path d="M92.8347 24.038C92.3556 24.038 91.8836 23.9593 91.4186 23.7948C90.9608 23.6375 90.5889 23.3943 90.31 23.0724C90.0311 22.7506 89.8951 22.343 89.8951 21.8566C89.8951 21.2273 90.2028 20.7194 90.825 20.3045C91.4543 19.8898 92.4272 19.5821 93.7146 19.4034L96.7756 18.9528V19.6251C96.7756 20.6192 96.5968 21.4561 96.2391 22.114C95.8887 22.765 95.4095 23.2585 94.8159 23.5659C94.2294 23.8807 93.5571 24.038 92.8347 24.038ZM101.36 13.9964C101.882 13.696 102.447 13.5458 103.048 13.5458C104.228 13.5458 105.272 13.939 105.845 14.7116C106.417 15.4911 106.71 16.4924 106.71 17.6796V17.7084H99.5077V17.6796C99.5435 16.7356 99.7294 15.9561 100.066 15.348C100.409 14.7544 100.845 14.2967 101.36 13.9964ZM109.206 16.192C109.027 15.3695 108.713 14.59 108.276 13.8748C107.833 13.1524 107.196 12.5516 106.374 12.0938C105.551 11.6361 104.328 11.4072 103.055 11.4072C101.961 11.4072 101.024 11.6146 100.259 12.0152C99.5364 12.4014 98.9284 12.8877 98.442 13.4743C98.0701 12.9092 97.5265 12.4228 96.8115 12.0295C96.0604 11.6146 95.0162 11.4072 93.7073 11.4072C92.7275 11.4072 91.8692 11.5431 91.1683 11.8077C90.4673 12.0724 89.888 12.4014 89.459 12.7876C89.0297 13.1737 88.7008 13.5744 88.4934 13.9749C88.2788 14.3825 88.1716 14.7329 88.1716 15.0191C88.1716 15.205 88.2358 15.3624 88.3718 15.4982C88.5005 15.6342 88.6651 15.6985 88.8509 15.6985H90.0167C90.1598 15.6985 90.2885 15.6557 90.3816 15.5698C90.4746 15.4911 90.5532 15.3624 90.6319 15.1978C90.7749 14.9546 90.9681 14.7043 91.2184 14.454C91.4616 14.2108 91.7906 13.9964 92.1981 13.8174C92.6059 13.6387 93.1065 13.5529 93.6858 13.5529C94.7802 13.5529 95.5741 13.7888 96.0461 14.2609C96.5182 14.7329 96.7541 15.3981 96.7541 16.242V16.9072L92.7991 17.4652C91.1611 17.7011 89.8165 18.209 88.7938 18.9743C87.7638 19.7467 87.2417 20.7838 87.2417 22.0497C87.2417 22.8436 87.4563 23.5588 87.8783 24.1882C88.3003 24.8104 88.9083 25.3183 89.6734 25.6829C90.4387 26.0477 91.5044 26.2338 92.5273 26.2338C93.7646 26.2338 94.7158 26.0048 95.6528 25.5615C96.561 25.1322 97.3121 24.46 97.8842 23.5588C98.3563 24.3313 99 24.975 99.8009 25.4612C100.645 25.9762 101.882 26.2338 103.177 26.2338C103.749 26.2338 105.029 26.0978 105.759 25.8189C106.488 25.5471 107.103 25.2109 107.597 24.8319C108.09 24.4456 108.469 24.0524 108.713 23.659C108.97 23.2512 109.092 22.9437 109.092 22.7076C109.092 22.2856 108.87 22.0568 108.441 22.0568H107.218C106.982 22.0568 106.817 22.0854 106.703 22.1498C106.588 22.2141 106.46 22.3501 106.309 22.5789C105.938 23.0868 105.466 23.4729 104.9 23.709C104.335 23.945 103.592 24.0666 103.012 24.0666C102.469 24.0666 101.918 23.9308 101.389 23.6517C100.86 23.3799 100.423 22.9366 100.073 22.3357C99.7294 21.735 99.5364 20.9125 99.5006 19.904V19.7396H108.734C108.934 19.7396 109.106 19.6752 109.249 19.5607C109.392 19.4391 109.464 19.2603 109.464 19.0386V18.5736C109.478 17.8156 109.385 17.0146 109.206 16.192Z" fill="#E94C2C"/>
<path d="M84.2837 6.18555H82.9821C82.7819 6.18555 82.6102 6.24992 82.4815 6.38581C82.3455 6.51455 82.2812 6.6862 82.2812 6.88646V25.5322C82.2812 25.7324 82.3455 25.9041 82.4815 26.0329C82.6102 26.1617 82.9392 26.2332 83.1394 26.2332H84.1335C84.3338 26.2332 84.6556 26.1688 84.7772 26.0329C84.8988 25.9041 84.9633 25.7324 84.9633 25.5322V6.88646C84.9633 6.6862 84.8988 6.51455 84.7772 6.38581C84.6556 6.24992 84.484 6.18555 84.2837 6.18555Z" fill="#E94C2C"/>
<path d="M10.4852 20.5479C8.66135 20.8554 6.60154 21.1987 6.51562 22.8079C6.58717 23.4302 6.97346 23.9237 7.61716 24.1955C8.57543 24.596 9.84863 24.4101 10.7141 23.7234C11.6581 22.9867 12.0586 21.7637 11.8513 20.2832C11.4579 20.3833 10.9786 20.462 10.4852 20.5479Z" fill="#E94C2C"/>
<path d="M19.4396 15.434C19.3683 14.8116 18.982 14.3181 18.3383 14.0465C17.9592 13.8819 17.5229 13.8175 17.0865 13.839C16.4286 13.8748 15.7635 14.1036 15.2414 14.5112C14.2973 15.248 13.8968 16.4709 14.1042 17.9515C14.4975 17.8513 14.9696 17.7727 15.4702 17.6868C17.287 17.3937 19.3539 17.0431 19.4396 15.434Z" fill="#E94C2C"/>
<path d="M14.8694 21.8207C15.4488 22.3141 16.6217 22.45 17.6016 22.1426C18.0449 22.0066 18.8175 21.6491 19.0248 20.8623C19.125 20.5619 19.3323 20.4044 19.6185 20.3902H19.6399C19.7115 20.3973 19.8544 20.3831 20.0046 20.3688C20.448 20.3258 20.9559 20.2828 21.1276 20.5261C21.5066 21.127 21.2206 21.9494 20.2978 22.9006C19.4612 23.6803 18.1308 24.188 16.7433 24.2595H16.7362C15.3629 24.3311 14.097 23.9734 13.2244 23.2796C12.7309 24.4454 11.7583 25.4039 10.528 25.9403C9.91291 26.205 9.26921 26.3552 8.61841 26.3909C7.86748 26.4266 7.11638 26.3051 6.42262 26.0261C5.2712 25.6256 4.39867 24.567 4.20553 23.3297C4.02676 22.1783 4.43436 21.1341 5.33547 20.4474C6.437 19.4103 8.76149 18.9956 10.6353 18.6594C11.0357 18.5879 11.4077 18.5234 11.7439 18.452C11.7368 17.7295 11.6081 16.8355 11.0787 16.4279C10.4994 15.9344 9.32637 15.7984 8.34662 16.1061C7.90317 16.2419 7.13076 16.5996 6.92324 17.3864C6.82311 17.6867 6.61577 17.844 6.32977 17.8584H6.30829C6.23675 17.8511 6.09367 17.8655 5.94348 17.8797C5.50003 17.9227 4.99231 17.9656 4.82065 17.7224C4.44146 17.1217 4.72762 16.2992 5.65021 15.3479C6.48706 14.5684 7.81742 14.0605 9.20494 13.9889H9.21204C10.5852 13.9176 11.8511 14.2751 12.7238 14.9689C13.2173 13.8031 14.19 12.8446 15.42 12.3082C16.7433 11.7289 18.2451 11.7003 19.5254 12.2224C20.677 12.6229 21.5496 13.6815 21.7427 14.9188C21.9215 16.0702 21.5137 17.1146 20.6126 17.8011C19.5112 18.8382 17.1868 19.253 15.3128 19.5891C14.9194 19.6606 14.5404 19.7322 14.2042 19.7966C14.2115 20.5189 14.3402 21.413 14.8694 21.8207ZM12.8381 6C5.75034 6 0 11.7432 0 18.8382C0 25.9332 5.75034 31.6692 12.8381 31.6692C19.9259 31.6692 25.6763 25.926 25.6763 18.8311C25.6763 11.7361 19.9259 6 12.8381 6Z" fill="#E94C2C"/>
<path d="M60.617 17.9652C60.8115 18.4563 60.551 19.2024 59.9923 19.3386C58.6174 19.596 58.1882 19.8821 56.9209 20.7427C57.0064 23.169 56.8382 25.5828 56.4164 27.9836C56.0655 30.0634 55.5912 32.1838 54.7573 34.1414C54.0303 35.8383 52.6344 38.3118 50.4605 37.9677C48.4145 37.6459 47.8751 35.0636 47.8141 33.3938C47.766 31.4701 48.1623 29.5766 48.8194 27.79C50.0359 24.6033 52.1335 21.7935 54.7583 19.7028C54.7104 18.6321 54.5995 17.5661 54.4259 16.5048C54.0223 17.4511 53.7034 18.3706 53.1356 19.2343C52.2062 20.7566 51.0931 22.6504 49.1928 23.0128C47.1039 23.3892 45.8617 21.5543 45.4749 19.7505C44.9729 17.6711 45.359 16.1874 45.8716 14.1588C46.182 12.8088 48.2664 13.2225 47.956 14.5726C47.5678 16.1495 47.3024 17.0153 47.4275 18.8156C47.6035 19.9083 48.1694 21.5723 49.4866 20.5897C50.6245 19.747 51.1445 18.2653 51.8099 17.0153C52.5288 15.6349 53.1172 14.2009 53.7034 12.7357C53.7938 12.5152 53.9251 12.3631 54.0779 12.2674C54.5706 11.9587 55.3634 12.0569 55.7043 12.5278C55.7792 12.6312 55.8356 12.7615 55.8656 12.9225C56.313 14.6901 56.6056 16.5008 56.7747 18.3524C57.4729 17.9652 58.0451 17.6384 59.275 17.3383C59.8335 17.202 60.4155 17.3799 60.617 17.9652ZM54.6572 25.1445C54.749 24.2531 54.8093 23.3639 54.8382 22.4772C54.4238 22.8555 54.0121 23.2652 53.6677 23.7331C52.5066 25.1147 51.5818 26.7 50.8863 28.3947C50.3223 29.732 49.9607 31.2437 49.9448 32.7298C49.945 33.5829 49.9616 34.6559 50.3993 35.4447C50.695 36.0231 51.0359 35.9346 51.4747 35.4596C52.6788 34.2327 53.2031 32.3613 53.652 30.7483C54.1474 28.9106 54.4808 27.0217 54.6572 25.1445Z" fill="#396179"/>
<path d="M45.553 19.3761L46.8731 20.6618C45.8093 22.0501 45.8494 22.2785 44.7265 23.1777C44.453 23.3968 44.1578 23.5986 43.8197 23.6907C43.0677 23.8962 42.2747 23.7367 41.6627 23.1612C40.983 22.5166 40.6883 21.5275 40.4344 20.6618C40.1664 19.6075 40.0242 18.5439 39.7877 17.4873C39.7039 17.2092 39.6537 16.9601 39.5722 16.7135C39.5338 16.6215 39.4569 16.4377 39.3824 16.2853C39.2622 16.473 39.1236 16.6495 39.0129 16.843C38.1071 18.4287 37.5765 19.7508 37.1435 21.541C37.0751 21.8935 36.8573 22.7439 36.1774 22.7439C35.29 22.7439 34.952 21.6794 34.8542 21.3131C34.4722 19.8822 34.5035 18.7376 34.466 17.7249C34.4343 16.8742 34.4341 16.0211 34.2744 15.1484C34.2558 14.897 34.1389 14.4451 34.1218 14.3697C34.0031 14.4735 33.7705 14.7434 33.6832 14.8447C32.7327 16.0843 32.291 17.7918 31.8957 19.2744C31.4759 20.8537 30.9239 22.4264 30.9239 24.0542C30.9239 25.1763 28.7574 25.5106 28.5743 24.3235C28.1558 21.8073 28.0537 18.0665 28.2198 15.3055C28.2489 14.8194 28.3047 14.2935 28.6531 13.9535C29.3682 13.2556 30.4886 13.8813 30.3877 14.9857C30.3727 15.2081 30.3262 16.8635 30.3112 17.0857C30.8542 15.4657 31.5404 13.6455 32.8867 12.6292C33.7244 11.9982 34.824 11.9165 35.5761 12.682C36.2268 13.3604 36.3352 14.3949 36.4634 15.27C36.5393 15.8647 36.5498 16.4325 36.5628 17.0318C36.7501 16.5756 36.9711 16.1484 37.2259 15.7503C37.6702 14.9275 38.2646 13.9987 39.2992 13.8903C40.3337 13.7818 41.0253 14.5833 41.3734 15.4422C41.7937 16.4219 41.9698 17.5146 42.1748 18.5735C42.2773 19.1031 42.3823 19.664 42.5162 20.1911C42.6047 20.5322 42.7551 21.2791 43.0589 21.541C43.529 21.9168 44.5355 20.5781 44.8263 20.2406C45.5511 19.3653 45.013 20.0253 45.553 19.3761Z" fill="#396179"/>
</svg>
